<?xml version="1.0" ?><!DOCTYPE svg  PUBLIC '-//W3C//DTD SVG 1.1//EN'  'http://www.w3.org/Graphics/SVG/1.1/DTD/svg11.dtd'><svg height="6.82666in" style="shape-rendering:geometricPrecision; text-rendering:geometricPrecision; image-rendering:optimizeQuality; fill-rule:evenodd; clip-rule:evenodd" viewBox="0 0 6.82666 6.82666" width="6.82666in" xml:space="preserve" xmlns="http://www.w3.org/2000/svg" xmlns:xlink="http://www.w3.org/1999/xlink"><defs><style type="text/css">
   <![CDATA[
    .fil1 {fill:none}
    .fil0 {fill:black;fill-rule:nonzero}
   ]]>
  </style></defs><g id="Layer_x0020_1"><path class="fil0" d="M1.40857 4.8087c-0.0232323,0.0726654 -0.0421457,0.147173 -0.0564134,0.223232 -0.0210433,0.112181 -0.0320709,0.227453 -0.0320709,0.344795l0 0.556606c0,0.0220906 0.0179094,0.04 0.04,0.04l4.47895 0c0.0220906,0 0.04,-0.0179094 0.04,-0.04l0 -0.556606c0,-0.516795 -0.21139,-0.986583 -0.551957,-1.32715 -0.340567,-0.340567 -0.810354,-0.551957 -1.32715,-0.551957l-0.800744 0c-0.272535,0 -0.532106,0.0588937 -0.76661,0.164567 -0.197181,0.0888583 -0.376539,0.210803 -0.530902,0.358622 0.0072874,0.0204724 0.0149803,0.0411535 0.0231457,0.0614213 0.0297283,-0.015815 0.0604331,-0.0297795 0.0915236,-0.040878 0.125272,-0.0447165 0.259638,-0.0383307 0.336205,0.0856575 0.0140236,0.0227087 0.0285669,0.0451339 0.0430315,0.0675669 0.0980984,0.15211 0.161346,0.267417 0.186012,0.45322 0.00333071,0.0250945 0.00595276,0.0450157 -0.00157874,0.0705433 -0.0433819,0.146988 -0.238693,0.2515 -0.368138,0.30385 -0.0157795,0.00638189 -0.0314685,0.0130079 -0.0474724,0.0188189 -0.0851299,0.0309213 -0.181047,0.0446417 -0.271295,0.0396102 -0.156528,-0.00872835 -0.295118,-0.0721339 -0.409295,-0.179031 -0.0124016,-0.0116102 -0.00716535,-0.00390945 -0.0222717,-0.0230433 -0.0180236,-0.0228346 -0.0356811,-0.0461299 -0.0529724,-0.0698465z"/><path class="fil0" d="M3.59956 0.853331c0.313055,0 0.596484,0.126902 0.801642,0.332059 0.205154,0.205157 0.332055,0.488587 0.332055,0.801642 0,0.313055 -0.126898,0.59648 -0.332055,0.801638 -0.205157,0.205157 -0.488587,0.332059 -0.801642,0.332059 -0.313055,0 -0.59648,-0.126902 -0.801638,-0.332059 -0.205157,-0.205154 -0.332059,-0.488587 -0.332059,-0.801638 0,-0.313055 0.126902,-0.596484 0.332059,-0.801642 0.205154,-0.205157 0.488583,-0.332059 0.801638,-0.332059z"/><path class="fil0" d="M1.88939 4.19681c0.0856535,-0.0574685 0.301236,-0.179772 0.395102,-0.0277756 0.0127205,0.0205984 0.0284488,0.0449803 0.0438661,0.0688898 0.0782362,0.121299 0.14872,0.230602 0.173941,0.420394 0.00155118,0.0116969 0.00465354,0.0258661 0.000996063,0.0373701 -0.00764173,0.0280315 -0.0545472,0.144374 -0.321406,0.252335 -0.0142283,0.00575197 -0.0304409,0.0125787 -0.0447913,0.0177913 -0.0826575,0.0300197 -0.356528,0.103965 -0.598606,-0.12263 -0.00433858,-0.00406299 -0.0105787,-0.00935433 -0.0141535,-0.0142126 -0.21026,-0.248547 -0.376217,-0.599799 -0.474996,-0.968437 -0.095126,-0.355035 -0.128201,-0.72735 -0.0787874,-1.04066 0.0058937,-0.037374 0.00819685,-0.0491693 0.0214134,-0.0860433 0.0974567,-0.271756 0.329843,-0.349528 0.428264,-0.370669 0.0222835,-0.0047874 0.0502874,-0.00849213 0.0735591,-0.0116181 0.26615,-0.0358031 0.366992,0.0315197 0.393614,0.0554803 0.0066063,0.00594094 0.0114685,0.0112795 0.0144213,0.0199173 0.0803425,0.185335 0.0737795,0.318748 0.0664606,0.467299 -0.00134646,0.027374 -0.00272047,0.0552677 -0.0035,0.0815118 -0.00529134,0.178591 -0.253142,0.180516 -0.356051,0.173591 0.00393701,0.107591 0.048752,0.321283 0.105504,0.533087 0.0567441,0.21178 0.124772,0.419228 0.17515,0.514378z"/></g><rect class="fil1" height="6.82666" width="6.82666"/></svg>