<?xml version="1.0" ?><!DOCTYPE svg  PUBLIC '-//W3C//DTD SVG 1.1//EN'  'http://www.w3.org/Graphics/SVG/1.1/DTD/svg11.dtd'><svg height="6.82666in" style="shape-rendering:geometricPrecision; text-rendering:geometricPrecision; image-rendering:optimizeQuality; fill-rule:evenodd; clip-rule:evenodd" viewBox="0 0 6.82666 6.82666" width="6.82666in" xml:space="preserve" xmlns="http://www.w3.org/2000/svg" xmlns:xlink="http://www.w3.org/1999/xlink"><defs><style type="text/css">
   <![CDATA[
    .fil2 {fill:none}
    .fil1 {fill:black}
    .fil0 {fill:black;fill-rule:nonzero}
   ]]>
  </style></defs><g id="Layer_x0020_1"><polygon class="fil0" points="2.50915,2.18989 2.50915,1.76085 2.92373,1.76085 2.92373,2.18989 "/><path class="fil0" d="M3.73377 1.68085l-2.03466 0c-0.0220906,0 -0.04,-0.0179094 -0.04,-0.04l0 -0.74752c0,-0.0220906 0.0179094,-0.04 0.04,-0.04l2.03466 0c0.0220906,0 0.04,0.0179094 0.04,0.04l0 0.74752c0,0.0220906 -0.0179094,0.04 -0.04,0.04zm-0.119996 -0.159996l0 -0.507528 -1.79467 0 0 0.507528 1.79467 0z"/><path class="fil1" d="M3.41333 5.23546c0.0465118,0 0.0886299,0.0188622 0.11911,0.0493425 0.0304803,0.0304803 0.0493425,0.0725945 0.0493425,0.119106 0,0.0465118 -0.0188622,0.0886299 -0.0493425,0.11911 -0.0304803,0.0304803 -0.0725984,0.0493425 -0.11911,0.0493425 -0.0465118,0 -0.0886299,-0.0188622 -0.11911,-0.0493425 -0.0304803,-0.0304803 -0.0493425,-0.0725984 -0.0493425,-0.11911 0,-0.0465118 0.0188622,-0.088626 0.0493425,-0.119106 0.0304803,-0.0304803 0.0725984,-0.0493425 0.11911,-0.0493425zm1.81181 -0.400972l-3.62362 0c-0.0723465,0 -0.138087,0.0295709 -0.18572,0.0772008 -0.0476299,0.0476339 -0.0772008,0.113374 -0.0772008,0.18572l0 0.613c0,0.0723465 0.0295709,0.138091 0.0772008,0.185724 0.0476339,0.0476299 0.113374,0.0772008 0.18572,0.0772008l3.62362 0c0.0723465,0 0.138091,-0.0295709 0.18572,-0.0772047 0.0476339,-0.0476339 0.0772047,-0.113374 0.0772047,-0.18572l0 -0.613c0,-0.0723465 -0.0295709,-0.138087 -0.0772047,-0.18572 -0.0476299,-0.0476299 -0.113374,-0.0772008 -0.18572,-0.0772008z"/><path class="fil1" d="M4.43843 3.69789c0,-0.0220906 0.0179094,-0.04 0.04,-0.04l0.211413 0c0.0220906,0 0.04,0.0179094 0.04,0.04l0 0.211413c0,0.0220906 -0.0179094,0.04 -0.04,0.04l-0.211413 0c-0.0220906,0 -0.04,-0.0179094 -0.04,-0.04l0 -0.211413zm-0.373012 0.562126c0.0220906,0 0.04,0.0179094 0.04,0.04l0 0.211413c0,0.0220906 -0.0179094,0.04 -0.04,0.04l-0.211413 0c-0.0220906,0 -0.04,-0.0179094 -0.04,-0.04l0 -0.211413c0,-0.0220906 0.0179094,-0.04 0.04,-0.04l0.211413 0zm-2.46389 0.494476l3.62362 0c0.0134488,0 0.0267992,0.000791339 0.04,0.00234646l0 -2.26855c0,-0.0601024 -0.024563,-0.114717 -0.064126,-0.15428 -0.039563,-0.039563 -0.0941772,-0.064126 -0.15428,-0.064126l-3.30062 0c-0.0601024,0 -0.114717,0.024563 -0.154283,0.064126 -0.039563,0.039563 -0.064126,0.0941772 -0.064126,0.15428l0 2.27426c0.0240276,-0.00531496 0.0487559,-0.00805906 0.073815,-0.00805906zm3.03097 -2.09939l0 0.747524c0,0.0220906 -0.0179094,0.04 -0.04,0.04l-2.39214 0c-0.0220906,0 -0.04,-0.0179094 -0.04,-0.04l0 -0.747524c0,-0.0220906 0.0179094,-0.04 0.04,-0.04l2.39214 0c0.0220906,0 0.04,0.0179094 0.04,0.04zm-0.154067 1.60491l0.211413 0c0.0220906,0 0.04,0.0179094 0.04,0.04l0 0.211413c0,0.0220906 -0.0179094,0.04 -0.04,0.04l-0.211413 0c-0.0220906,0 -0.04,-0.0179094 -0.04,-0.04l0 -0.211413c0,-0.0220906 0.0179094,-0.04 0.04,-0.04zm-0.624425 -0.602126l0.211413 0c0.0220906,0 0.04,0.0179094 0.04,0.04l0 0.211413c0,0.0220906 -0.0179094,0.04 -0.04,0.04l-0.211413 0c-0.0220906,0 -0.04,-0.0179094 -0.04,-0.04l0 -0.211413c0,-0.0220906 0.0179094,-0.04 0.04,-0.04zm-0.624425 0.602126l0.211409 0c0.0220906,0 0.04,0.0179094 0.04,0.04l0 0.211413c0,0.0220906 -0.0179094,0.04 -0.04,0.04l-0.211409 0c-0.0220906,0 -0.04,-0.0179094 -0.04,-0.04l0 -0.211413c0,-0.0220906 0.0179094,-0.04 0.04,-0.04zm0 -0.602126l0.211409 0c0.0220906,0 0.04,0.0179094 0.04,0.04l0 0.211413c0,0.0220906 -0.0179094,0.04 -0.04,0.04l-0.211409 0c-0.0220906,0 -0.04,-0.0179094 -0.04,-0.04l0 -0.211413c0,-0.0220906 0.0179094,-0.04 0.04,-0.04zm-0.624429 0.602126l0.211413 0c0.0220906,0 0.04,0.0179094 0.04,0.04l0 0.211413c0,0.0220906 -0.0179094,0.04 -0.04,0.04l-0.211413 0c-0.0220906,0 -0.04,-0.0179094 -0.04,-0.04l0 -0.211413c0,-0.0220906 0.0179094,-0.04 0.04,-0.04zm0 -0.602126l0.211413 0c0.0220906,0 0.04,0.0179094 0.04,0.04l0 0.211413c0,0.0220906 -0.0179094,0.04 -0.04,0.04l-0.211413 0c-0.0220906,0 -0.04,-0.0179094 -0.04,-0.04l0 -0.211413c0,-0.0220906 0.0179094,-0.04 0.04,-0.04zm-0.624425 0.602126l0.211413 0c0.0220906,0 0.04,0.0179094 0.04,0.04l0 0.211413c0,0.0220906 -0.0179094,0.04 -0.04,0.04l-0.211413 0c-0.0220906,0 -0.04,-0.0179094 -0.04,-0.04l0 -0.211413c0,-0.0220906 0.0179094,-0.04 0.04,-0.04zm0 -0.602126l0.211413 0c0.0220906,0 0.04,0.0179094 0.04,0.04l0 0.211413c0,0.0220906 -0.0179094,0.04 -0.04,0.04l-0.211413 0c-0.0220906,0 -0.04,-0.0179094 -0.04,-0.04l0 -0.211413c0,-0.0220906 0.0179094,-0.04 0.04,-0.04z"/></g><rect class="fil2" height="6.82666" width="6.82666"/></svg>