<?xml version="1.0" ?><!DOCTYPE svg  PUBLIC '-//W3C//DTD SVG 1.1//EN'  'http://www.w3.org/Graphics/SVG/1.1/DTD/svg11.dtd'><svg height="6.82666in" style="shape-rendering:geometricPrecision; text-rendering:geometricPrecision; image-rendering:optimizeQuality; fill-rule:evenodd; clip-rule:evenodd" viewBox="0 0 6.82666 6.82666" width="6.82666in" xml:space="preserve" xmlns="http://www.w3.org/2000/svg" xmlns:xlink="http://www.w3.org/1999/xlink"><defs><style type="text/css">
   <![CDATA[
    .fil1 {fill:none}
    .fil0 {fill:black}
   ]]>
  </style></defs><g id="Layer_x0020_1"><path class="fil0" d="M4.73224 3.99045c0,-0.143823 0.116594,-0.260417 0.260417,-0.260417 0.143823,0 0.260417,0.116594 0.260417,0.260417 0,0.143823 -0.116594,0.260417 -0.260417,0.260417 -0.143823,0 -0.260417,-0.116594 -0.260417,-0.260417zm-1.08333 0c0,-0.143823 0.116594,-0.260417 0.260417,-0.260417 0.143823,0 0.260417,0.116594 0.260417,0.260417 0,0.143823 -0.116594,0.260417 -0.260417,0.260417 -0.143823,0 -0.260417,-0.116594 -0.260417,-0.260417zm-0.822913 -0.260417c0.143823,0 0.260417,0.116594 0.260417,0.260417 0,0.143823 -0.116594,0.260417 -0.260417,0.260417 -0.143823,0 -0.260417,-0.116594 -0.260417,-0.260417 0,-0.143823 0.116594,-0.260417 0.260417,-0.260417zm-0.980669 -0.547555l0 1.61594c0,0.170783 0.0692677,0.325453 0.181232,0.437413 0.111961,0.111961 0.26663,0.181228 0.437413,0.181228l2.89071 0c0.170783,0 0.325453,-0.0692677 0.437417,-0.181228 0.111961,-0.111961 0.181228,-0.26663 0.181228,-0.437413l0 -1.61594c0,-0.170783 -0.0692677,-0.325453 -0.181228,-0.437413 -0.111965,-0.111961 -0.266634,-0.181228 -0.437417,-0.181228l-1.72662 0 -2.65996 -1.1463c-0.0358228,-0.0173465 -0.0797953,-0.00565748 -0.101957,0.028626 -0.0239843,0.0371024 -0.0133465,0.0866299 0.0237559,0.110614l0.00030315 -0.000311024 1.55867 1.00756c-0.164791,0.00394882 -0.313661,0.0723898 -0.422315,0.181043 -0.111965,0.111961 -0.181232,0.26663 -0.181232,0.437413z"/></g><rect class="fil1" height="6.82666" width="6.82666"/></svg>