<?xml version="1.0" ?><!DOCTYPE svg  PUBLIC '-//W3C//DTD SVG 1.1//EN'  'http://www.w3.org/Graphics/SVG/1.1/DTD/svg11.dtd'><svg height="6.82666in" style="shape-rendering:geometricPrecision; text-rendering:geometricPrecision; image-rendering:optimizeQuality; fill-rule:evenodd; clip-rule:evenodd" viewBox="0 0 6.82666 6.82666" width="6.82666in" xml:space="preserve" xmlns="http://www.w3.org/2000/svg" xmlns:xlink="http://www.w3.org/1999/xlink"><defs><style type="text/css">
   <![CDATA[
    .fil2 {fill:none}
    .fil1 {fill:black}
    .fil0 {fill:black;fill-rule:nonzero}
   ]]>
  </style></defs><g id="Layer_x0020_1"><path class="fil0" d="M1.01091 1.84632l3.26696 0c0.0428425,0 0.0775748,0.0347323 0.0775748,0.0775748l0 2.41393c0,0.0428425 -0.0347323,0.0775748 -0.0775748,0.0775748l-1.67847 0c-0.00322047,-0.138091 -0.0591024,-0.268866 -0.157028,-0.366791 -0.100913,-0.100913 -0.236705,-0.157181 -0.379441,-0.157181 -0.142736,0 -0.278531,0.0562677 -0.379445,0.157181 -0.0979252,0.0979252 -0.153807,0.228701 -0.157028,0.366791l-0.515551 0c-0.0428425,0 -0.0775748,-0.0347323 -0.0775748,-0.0775748l0 -2.41393c0,-0.0428425 0.0347323,-0.0775748 0.0775748,-0.0775748zm0.59152 1.16317c-0.0214213,0 -0.0387874,0.0173701 -0.0387874,0.0387913 0,0.0214173 0.0173661,0.0387874 0.0387874,0.0387874l2.0202 0c0.0214213,0 0.0387874,-0.0173701 0.0387874,-0.0387874 0,-0.0214213 -0.0173661,-0.0387913 -0.0387874,-0.0387913l-2.0202 0zm0 -0.595551c-0.0214213,0 -0.0387874,0.0173661 -0.0387874,0.0387874 0,0.0214213 0.0173661,0.0387874 0.0387874,0.0387874l2.0202 0c0.0214213,0 0.0387874,-0.0173661 0.0387874,-0.0387874 0,-0.0214213 -0.0173661,-0.0387874 -0.0387874,-0.0387874l-2.0202 0z"/><path class="fil1" d="M2.38752 4.10345c-0.0830669,-0.0830709 -0.197831,-0.134461 -0.324587,-0.134461 -0.12676,0 -0.241524,0.0513898 -0.324594,0.134461 -0.0830709,0.0830709 -0.134457,0.197839 -0.134457,0.324594 0,0.126756 0.0513858,0.24152 0.134457,0.324587 0.0830748,0.0830748 0.197839,0.134461 0.324594,0.134461 0.126756,0 0.24152,-0.0513858 0.324587,-0.134461 0.0830748,-0.0830669 0.134461,-0.197831 0.134461,-0.324587 0,-0.126756 -0.0513858,-0.241524 -0.134461,-0.324594zm-0.206457 0.324594c0,0.0652402 -0.0528898,0.11813 -0.11813,0.11813 -0.0652441,0 -0.118134,-0.0528898 -0.118134,-0.11813 0,-0.0652441 0.0528898,-0.118138 0.118134,-0.118138 0.0652402,0 0.11813,0.0528937 0.11813,0.118138z"/><path class="fil1" d="M4.74534 4.42805c0,0.126756 0.0513858,0.24152 0.134461,0.324587 0.0830709,0.0830748 0.197835,0.134461 0.324587,0.134461 0.126756,0 0.24152,-0.0513858 0.324594,-0.134461 0.0830748,-0.0830669 0.134461,-0.197831 0.134461,-0.324587 0,-0.126756 -0.0513858,-0.241524 -0.134461,-0.324594 -0.0830709,-0.0830709 -0.197835,-0.134461 -0.324594,-0.134461 -0.126752,0 -0.241516,0.0513898 -0.324587,0.134461 -0.0830748,0.0830709 -0.134461,0.197835 -0.134461,0.324594zm0.577181 0c0,0.0652402 -0.0528858,0.11813 -0.118134,0.11813 -0.0652402,0 -0.11813,-0.0528898 -0.11813,-0.11813 0,-0.0652441 0.0528898,-0.118138 0.11813,-0.118138 0.065248,0 0.118134,0.0528937 0.118134,0.118138z"/><path class="fil1" d="M5.20439 3.89142c0.14274,0 0.278535,0.0562677 0.379449,0.157181 0.0979213,0.0979252 0.153807,0.228701 0.157024,0.366791l0.234898 0c0.0428425,0 0.0775748,-0.0347323 0.0775748,-0.0775748l0 -1.15441c0,-0.211827 -0.0810827,-0.40474 -0.211717,-0.544886 -0.132028,-0.141638 -0.314461,-0.229555 -0.515429,-0.229555l-0.893165 0 -3.93701e-006 0 0 1.92885c0,0.0272559 -0.00704331,0.0528661 -0.0193937,0.0751299 0.00620079,0.00159843 0.0126969,0.00244488 0.0193976,0.00244488l0.234902 0c0.00321654,-0.138091 0.0590984,-0.268866 0.157024,-0.366791 0.100913,-0.100913 0.236705,-0.157181 0.379441,-0.157181zm0.401272 -0.794114l0 0.434724 -0.580957 0 0 -0.69715 0.336343 0c0.134539,0 0.244614,0.118091 0.244614,0.262425z"/></g><rect class="fil2" height="6.82666" width="6.82666"/></svg>