<?xml version="1.0" ?><!DOCTYPE svg  PUBLIC '-//W3C//DTD SVG 1.1//EN'  'http://www.w3.org/Graphics/SVG/1.1/DTD/svg11.dtd'><svg height="6.82666in" style="shape-rendering:geometricPrecision; text-rendering:geometricPrecision; image-rendering:optimizeQuality; fill-rule:evenodd; clip-rule:evenodd" viewBox="0 0 6.82666 6.82666" width="6.82666in" xml:space="preserve" xmlns="http://www.w3.org/2000/svg" xmlns:xlink="http://www.w3.org/1999/xlink"><defs><style type="text/css">
   <![CDATA[
    .fil2 {fill:none}
    .fil1 {fill:black}
    .fil0 {fill:black;fill-rule:nonzero}
   ]]>
  </style></defs><g id="Layer_x0020_1"><path class="fil0" d="M5.56639 2.79237l0 2.5835c0,0.0441811 -0.0358189,0.08 -0.08,0.08l-0.505209 0 0 -1.36004c0,-0.0441811 -0.0358189,-0.08 -0.08,-0.08l-0.968736 0c-0.0441811,0 -0.08,0.0358189 -0.08,0.08l0 1.36004 -2.51219 0c-0.0441811,0 -0.08,-0.0358189 -0.08,-0.08l0 -2.5835 4.30613 0zm-3.08426 1.2268l-0.516657 0 0 0.529157 0.516657 0 0 -0.529157zm0.0800079 0l0 0.529157 0.499992 0 0 -0.529157 -0.499992 0zm0 -0.0800079l0.499992 0 0 -0.487492 -0.499992 0 0 0.487492zm-0.0800079 0l0 -0.487492 -0.516657 0 0 0.487492 0.516657 0z"/><path class="fil1" d="M1.76965 2.71237l0.527276 -1.58155 -0.478441 0c-0.0270787,-0.00034252 -0.0536732,0.0130787 -0.0690157,0.037752l0.000114173 7.08661e-005 -0.881567 1.41752c-0.00925197,0.0130512 -0.014689,0.0289961 -0.014689,0.0462087 0,0.0441811 0.0358189,0.08 0.08,0.08l0.836323 0z"/><polygon class="fil1" points="2.37816,1.13082 1.85644,2.71237 2.69921,2.71237 2.91111,1.13082 "/><polygon class="fil1" points="2.9904,1.13082 2.78119,2.71237 3.41333,2.71237 4.04546,2.71237 3.83626,1.13082 3.41333,1.13082 "/><polygon class="fil1" points="3.91581,1.13082 4.12772,2.71237 4.97021,2.71237 4.4485,1.13082 "/><path class="fil1" d="M4.53066 1.13082l0.527272 1.58155 0.83437 0c0.0147795,0.000204724 0.0297913,-0.0036811 0.0432717,-0.0120669 0.0375157,-0.0233307 0.0490157,-0.0726654 0.025685,-0.110181l-0.000122047 5.90551e-005 -0.881488 -1.41739c-0.0135276,-0.0249921 -0.0399803,-0.0419685 -0.0703976,-0.0419685l-0.478591 0z"/></g><rect class="fil2" height="6.82666" width="6.82666"/></svg>