<?xml version="1.0" ?><svg id="Layer_1" style="enable-background:new 0 0 48 48;" version="1.1" viewBox="0 0 48 48" xml:space="preserve" xmlns="http://www.w3.org/2000/svg" xmlns:xlink="http://www.w3.org/1999/xlink"><g><path d="M24,2C17.6,1.9,11.7,4.2,7.6,8.2C3.9,11.9,2,16.6,2,22c0,11.6,9.3,20,22,20c1.8,0,3.3-0.1,4.6-0.4L42,46.4V33.8   c2.6-3.4,4-7.5,4-11.8C46,10.4,36.7,2,24,2z M40.2,32.9L40,33.2v10.4l-11.2-4l-0.3,0.1C27.2,39.9,25.8,40,24,40   C12.4,40,4,32.4,4,22c0-4.8,1.7-9.1,5-12.4C12.7,6,18.1,4,24,4c11.6,0,20,7.6,20,18C44,26,42.7,29.8,40.2,32.9z"/><path d="M24,18c-2.2,0-4,1.8-4,4s1.8,4,4,4s4-1.8,4-4S26.2,18,24,18z M24,24c-1.1,0-2-0.9-2-2s0.9-2,2-2s2,0.9,2,2S25.1,24,24,24z"/><path d="M13,18c-2.2,0-4,1.8-4,4s1.8,4,4,4s4-1.8,4-4S15.2,18,13,18z M13,24c-1.1,0-2-0.9-2-2s0.9-2,2-2s2,0.9,2,2S14.1,24,13,24z"/><path d="M35,18c-2.2,0-4,1.8-4,4s1.8,4,4,4s4-1.8,4-4S37.2,18,35,18z M35,24c-1.1,0-2-0.9-2-2s0.9-2,2-2s2,0.9,2,2S36.1,24,35,24z"/></g></svg>