<?xml version="1.0" ?><svg id="Layer_1" style="enable-background:new 0 0 48 48;" version="1.1" viewBox="0 0 48 48" xml:space="preserve" xmlns="http://www.w3.org/2000/svg" xmlns:xlink="http://www.w3.org/1999/xlink"><g><path d="M36,46H12c-1.7,0-3-1.3-3-3V5c0-1.7,1.3-3,3-3h24c1.7,0,3,1.3,3,3v38C39,44.7,37.7,46,36,46z M12,4c-0.6,0-1,0.4-1,1v38   c0,0.6,0.4,1,1,1h24c0.6,0,1-0.4,1-1V5c0-0.6-0.4-1-1-1H12z"/></g><g><rect height="2" width="10" x="17" y="19"/></g><g><rect height="2" width="14" x="17" y="27"/></g><g><rect height="2" width="10" x="17" y="35"/></g><g><rect height="2" width="14" x="17" y="11"/></g></svg>