<?xml version="1.0" ?><svg id="Layer_1" style="enable-background:new 0 0 48 48;" version="1.1" viewBox="0 0 48 48" xml:space="preserve" xmlns="http://www.w3.org/2000/svg" xmlns:xlink="http://www.w3.org/1999/xlink"><g><path d="M43,46H33c-1.7,0-3-1.3-3-3V28c0-0.6-0.4-1-1-1H19c-0.6,0-1,0.4-1,1v15c0,1.7-1.3,3-3,3H5c-1.7,0-3-1.3-3-3V24.8   c0-0.8,0.3-1.5,0.9-2.1l19-19c1.2-1.2,3-1.2,4.2,0l19,19c0.6,0.6,0.9,1.3,0.9,2.1V43C46,44.7,44.7,46,43,46z M19,25h10   c1.7,0,3,1.3,3,3v15c0,0.6,0.4,1,1,1h10c0.6,0,1-0.4,1-1V24.8c0-0.3-0.1-0.5-0.3-0.7l-19-19c-0.4-0.4-1-0.4-1.4,0l-19,19   C4.1,24.3,4,24.5,4,24.8V43c0,0.6,0.4,1,1,1h10c0.6,0,1-0.4,1-1V28C16,26.3,17.3,25,19,25z"/></g></svg>