<?xml version="1.0" ?><svg id="Layer_1" style="enable-background:new 0 0 48 48;" version="1.1" viewBox="0 0 48 48" xml:space="preserve" xmlns="http://www.w3.org/2000/svg" xmlns:xlink="http://www.w3.org/1999/xlink"><g id="Layer_1_1_"><g><path d="M24,28c-2.2,0-4-1.8-4-4c0-2.2,1.8-4,4-4c2.2,0,4,1.8,4,4C28,26.2,26.2,28,24,28z M24,22c-1.1,0-2,0.9-2,2    c0,1.1,0.9,2,2,2c1.1,0,2-0.9,2-2C26,22.9,25.1,22,24,22z"/></g><g><path d="M10,28c-2.2,0-4-1.8-4-4c0-2.2,1.8-4,4-4s4,1.8,4,4C14,26.2,12.2,28,10,28z M10,22c-1.1,0-2,0.9-2,2c0,1.1,0.9,2,2,2    s2-0.9,2-2C12,22.9,11.1,22,10,22z"/></g><g><path d="M38,28c-2.2,0-4-1.8-4-4c0-2.2,1.8-4,4-4s4,1.8,4,4C42,26.2,40.2,28,38,28z M38,22c-1.1,0-2,0.9-2,2c0,1.1,0.9,2,2,2    s2-0.9,2-2C40,22.9,39.1,22,38,22z"/></g></g><g id="Layer_2"/></svg>